<svg width="64" height="64" viewBox="0 0 64 64" fill="none" xmlns="http://www.w3.org/2000/svg">
<path d="M32 45.3334C32.7555 45.3334 33.3893 45.0774 33.9013 44.5654C34.4133 44.0534 34.6684 43.4205 34.6666 42.6667C34.6649 41.9129 34.4089 41.28 33.8986 40.768C33.3884 40.256 32.7555 40 32 40C31.2444 40 30.6115 40.256 30.1013 40.768C29.5911 41.28 29.3351 41.9129 29.3333 42.6667C29.3315 43.4205 29.5875 44.0543 30.1013 44.568C30.6151 45.0818 31.248 45.3369 32 45.3334ZM32 34.6667C32.7555 34.6667 33.3893 34.4107 33.9013 33.8987C34.4133 33.3867 34.6684 32.7538 34.6666 32V21.3334C34.6666 20.5778 34.4106 19.9449 33.8986 19.4347C33.3866 18.9245 32.7538 18.6685 32 18.6667C31.2462 18.6649 30.6133 18.9209 30.1013 19.4347C29.5893 19.9485 29.3333 20.5814 29.3333 21.3334V32C29.3333 32.7556 29.5893 33.3894 30.1013 33.9014C30.6133 34.4134 31.2462 34.6685 32 34.6667ZM32 58.6667C28.3111 58.6667 24.8444 57.9663 21.6 56.5654C18.3555 55.1645 15.5333 53.2649 13.1333 50.8667C10.7333 48.4685 8.83376 45.6463 7.43465 42.4C6.03554 39.1538 5.33509 35.6872 5.33332 32C5.33154 28.3129 6.03198 24.8463 7.43465 21.6C8.83732 18.3538 10.7369 15.5316 13.1333 13.1334C15.5298 10.7352 18.352 8.8356 21.6 7.43471C24.848 6.03382 28.3146 5.33337 32 5.33337C35.6853 5.33337 39.152 6.03382 42.4 7.43471C45.648 8.8356 48.4702 10.7352 50.8667 13.1334C53.2631 15.5316 55.1635 18.3538 56.568 21.6C57.9724 24.8463 58.672 28.3129 58.6667 32C58.6613 35.6872 57.9609 39.1538 56.5653 42.4C55.1698 45.6463 53.2702 48.4685 50.8667 50.8667C48.4631 53.2649 45.6409 55.1654 42.4 56.568C39.1591 57.9707 35.6924 58.6703 32 58.6667ZM32 53.3334C37.9555 53.3334 43 51.2667 47.1333 47.1334C51.2666 43 53.3333 37.9556 53.3333 32C53.3333 26.0445 51.2666 21 47.1333 16.8667C43 12.7334 37.9555 10.6667 32 10.6667C26.0444 10.6667 21 12.7334 16.8666 16.8667C12.7333 21 10.6666 26.0445 10.6666 32C10.6666 37.9556 12.7333 43 16.8666 47.1334C21 51.2667 26.0444 53.3334 32 53.3334Z" fill="#E1401E"/>
</svg>
