<svg width="64" height="64" viewBox="0 0 64 64" fill="none" xmlns="http://www.w3.org/2000/svg">
<path d="M32 45.3334C32.7555 45.3334 33.3893 45.0774 33.9013 44.5654C34.4133 44.0534 34.6684 43.4205 34.6666 42.6667V32C34.6666 31.2445 34.4106 30.6116 33.8986 30.1014C33.3866 29.5912 32.7538 29.3352 32 29.3334C31.2462 29.3316 30.6133 29.5876 30.1013 30.1014C29.5893 30.6152 29.3333 31.248 29.3333 32V42.6667C29.3333 43.4223 29.5893 44.056 30.1013 44.568C30.6133 45.08 31.2462 45.3352 32 45.3334ZM32 24C32.7555 24 33.3893 23.744 33.9013 23.232C34.4133 22.72 34.6684 22.0872 34.6666 21.3334C34.6649 20.5796 34.4089 19.9467 33.8986 19.4347C33.3884 18.9227 32.7555 18.6667 32 18.6667C31.2444 18.6667 30.6115 18.9227 30.1013 19.4347C29.5911 19.9467 29.3351 20.5796 29.3333 21.3334C29.3315 22.0872 29.5875 22.7209 30.1013 23.2347C30.6151 23.7485 31.248 24.0036 32 24ZM32 58.6667C28.3111 58.6667 24.8444 57.9663 21.6 56.5654C18.3555 55.1645 15.5333 53.2649 13.1333 50.8667C10.7333 48.4685 8.83376 45.6463 7.43465 42.4C6.03554 39.1538 5.33509 35.6872 5.33332 32C5.33154 28.3129 6.03198 24.8463 7.43465 21.6C8.83732 18.3538 10.7369 15.5316 13.1333 13.1334C15.5298 10.7352 18.352 8.8356 21.6 7.43471C24.848 6.03382 28.3146 5.33337 32 5.33337C35.6853 5.33337 39.152 6.03382 42.4 7.43471C45.648 8.8356 48.4702 10.7352 50.8667 13.1334C53.2631 15.5316 55.1635 18.3538 56.568 21.6C57.9724 24.8463 58.672 28.3129 58.6667 32C58.6613 35.6872 57.9609 39.1538 56.5653 42.4C55.1698 45.6463 53.2702 48.4685 50.8667 50.8667C48.4631 53.2649 45.6409 55.1654 42.4 56.568C39.1591 57.9707 35.6924 58.6703 32 58.6667ZM32 53.3334C37.9555 53.3334 43 51.2667 47.1333 47.1334C51.2666 43 53.3333 37.9556 53.3333 32C53.3333 26.0445 51.2666 21 47.1333 16.8667C43 12.7334 37.9555 10.6667 32 10.6667C26.0444 10.6667 21 12.7334 16.8666 16.8667C12.7333 21 10.6666 26.0445 10.6666 32C10.6666 37.9556 12.7333 43 16.8666 47.1334C21 51.2667 26.0444 53.3334 32 53.3334Z" fill="#2563EB"/>
</svg>
