<svg width="64" height="64" viewBox="0 0 64 64" fill="none" xmlns="http://www.w3.org/2000/svg">
<path d="M7.26665 56C6.77776 56 6.33331 55.8782 5.93331 55.6347C5.53331 55.3911 5.2222 55.0684 4.99998 54.6667C4.77776 54.2649 4.65598 53.8311 4.63465 53.3653C4.61331 52.8996 4.73509 52.4444 4.99998 52L29.6666 9.33333C29.9333 8.88889 30.2782 8.55556 30.7013 8.33333C31.1244 8.11111 31.5573 8 32 8C32.4426 8 32.8764 8.11111 33.3013 8.33333C33.7262 8.55556 34.0702 8.88889 34.3333 9.33333L59 52C59.2666 52.4444 59.3893 52.9004 59.368 53.368C59.3466 53.8356 59.224 54.2684 59 54.6667C58.776 55.0649 58.4649 55.3876 58.0666 55.6347C57.6684 55.8818 57.224 56.0036 56.7333 56H7.26665ZM11.8666 50.6667H52.1333L32 16L11.8666 50.6667ZM32 48C32.7555 48 33.3893 47.744 33.9013 47.232C34.4133 46.72 34.6684 46.0871 34.6666 45.3333C34.6649 44.5796 34.4089 43.9467 33.8986 43.4347C33.3884 42.9227 32.7555 42.6667 32 42.6667C31.2444 42.6667 30.6115 42.9227 30.1013 43.4347C29.5911 43.9467 29.3351 44.5796 29.3333 45.3333C29.3315 46.0871 29.5875 46.7209 30.1013 47.2347C30.6151 47.7484 31.248 48.0036 32 48ZM32 40C32.7555 40 33.3893 39.744 33.9013 39.232C34.4133 38.72 34.6684 38.0871 34.6666 37.3333V29.3333C34.6666 28.5778 34.4106 27.9449 33.8986 27.4347C33.3866 26.9244 32.7538 26.6684 32 26.6667C31.2462 26.6649 30.6133 26.9209 30.1013 27.4347C29.5893 27.9484 29.3333 28.5813 29.3333 29.3333V37.3333C29.3333 38.0889 29.5893 38.7227 30.1013 39.2347C30.6133 39.7467 31.2462 40.0018 32 40Z" fill="#FF7A10"/>
</svg>
