<svg width="16" height="16" viewBox="0 0 16 16" fill="none" xmlns="http://www.w3.org/2000/svg">
<path d="M4.00001 14.6667C3.63334 14.6667 3.31956 14.5362 3.05867 14.2754C2.79778 14.0145 2.66712 13.7005 2.66667 13.3334V6.66669C2.66667 6.30002 2.79734 5.98624 3.05867 5.72535C3.32 5.46447 3.63378 5.3338 4.00001 5.33335H4.66667V4.00002C4.66667 3.0778 4.99178 2.2918 5.64201 1.64202C6.29223 0.992243 7.07823 0.667132 8.00001 0.666687C8.92178 0.666243 9.70801 0.991354 10.3587 1.64202C11.0093 2.29269 11.3342 3.07869 11.3333 4.00002V5.33335H12C12.3667 5.33335 12.6807 5.46402 12.942 5.72535C13.2033 5.98669 13.3338 6.30047 13.3333 6.66669V13.3334C13.3333 13.7 13.2029 14.014 12.942 14.2754C12.6811 14.5367 12.3671 14.6671 12 14.6667H4.00001ZM4.00001 13.3334H12V6.66669H4.00001V13.3334ZM8.00001 11.3334C8.36667 11.3334 8.68067 11.2029 8.94201 10.942C9.20334 10.6811 9.33378 10.3671 9.33334 10C9.33289 9.63291 9.20245 9.31913 8.94201 9.05869C8.68156 8.79824 8.36756 8.66758 8.00001 8.66669C7.63245 8.6658 7.31867 8.79647 7.05867 9.05869C6.79867 9.32091 6.668 9.63469 6.66667 10C6.66534 10.3654 6.79601 10.6794 7.05867 10.942C7.32134 11.2047 7.63512 11.3351 8.00001 11.3334ZM6.00001 5.33335H10V4.00002C10 3.44447 9.80556 2.97224 9.41667 2.58335C9.02778 2.19447 8.55556 2.00002 8.00001 2.00002C7.44445 2.00002 6.97223 2.19447 6.58334 2.58335C6.19445 2.97224 6.00001 3.44447 6.00001 4.00002V5.33335Z" fill="#E2E8F0"/>
</svg>
