<svg width="16" height="17" viewBox="0 0 16 17" fill="none" xmlns="http://www.w3.org/2000/svg">
<path d="M4.00001 15.1666C3.63334 15.1666 3.31956 15.0362 3.05867 14.7753C2.79778 14.5144 2.66712 14.2004 2.66667 13.8333V7.16663C2.66667 6.79996 2.79734 6.48618 3.05867 6.22529C3.32 5.9644 3.63378 5.83374 4.00001 5.83329H4.66667V4.49996C4.66667 3.57774 4.99178 2.79174 5.64201 2.14196C6.29223 1.49218 7.07823 1.16707 8.00001 1.16663C8.92178 1.16618 9.70801 1.49129 10.3587 2.14196C11.0093 2.79263 11.3342 3.57863 11.3333 4.49996V5.83329H12C12.3667 5.83329 12.6807 5.96396 12.942 6.22529C13.2033 6.48663 13.3338 6.8004 13.3333 7.16663V13.8333C13.3333 14.2 13.2029 14.514 12.942 14.7753C12.6811 15.0366 12.3671 15.1671 12 15.1666H4.00001ZM4.00001 13.8333H12V7.16663H4.00001V13.8333ZM8.00001 11.8333C8.36667 11.8333 8.68067 11.7028 8.94201 11.442C9.20334 11.1811 9.33378 10.8671 9.33334 10.5C9.33289 10.1328 9.20245 9.81907 8.94201 9.55863C8.68156 9.29818 8.36756 9.16752 8.00001 9.16663C7.63245 9.16574 7.31867 9.2964 7.05867 9.55863C6.79867 9.82085 6.668 10.1346 6.66667 10.5C6.66534 10.8653 6.79601 11.1793 7.05867 11.442C7.32134 11.7046 7.63512 11.8351 8.00001 11.8333ZM6.00001 5.83329H10V4.49996C10 3.9444 9.80556 3.47218 9.41667 3.08329C9.02778 2.6944 8.55556 2.49996 8.00001 2.49996C7.44445 2.49996 6.97223 2.6944 6.58334 3.08329C6.19445 3.47218 6.00001 3.9444 6.00001 4.49996V5.83329Z" fill="#2563EB"/>
</svg>
